<?xml version='1.0' encoding='UTF-8'?>
<svg width="77mm" height="77mm" version="1.1" viewBox="0 0 77 77" xmlns="http://www.w3.org/2000/svg"><path d="M4,4H5V5H4zM5,4H6V5H5zM6,4H7V5H6zM7,4H8V5H7zM8,4H9V5H8zM9,4H10V5H9zM10,4H11V5H10zM12,4H13V5H12zM14,4H15V5H14zM15,4H16V5H15zM16,4H17V5H16zM17,4H18V5H17zM18,4H19V5H18zM19,4H20V5H19zM20,4H21V5H20zM24,4H25V5H24zM28,4H29V5H28zM29,4H30V5H29zM36,4H37V5H36zM37,4H38V5H37zM38,4H39V5H38zM42,4H43V5H42zM43,4H44V5H43zM46,4H47V5H46zM47,4H48V5H47zM48,4H49V5H48zM51,4H52V5H51zM52,4H53V5H52zM53,4H54V5H53zM54,4H55V5H54zM57,4H58V5H57zM58,4H59V5H58zM60,4H61V5H60zM61,4H62V5H61zM62,4H63V5H62zM63,4H64V5H63zM64,4H65V5H64zM66,4H67V5H66zM67,4H68V5H67zM68,4H69V5H68zM69,4H70V5H69zM70,4H71V5H70zM71,4H72V5H71zM72,4H73V5H72zM4,5H5V6H4zM10,5H11V6H10zM15,5H16V6H15zM16,5H17V6H16zM17,5H18V6H17zM20,5H21V6H20zM26,5H27V6H26zM27,5H28V6H27zM28,5H29V6H28zM29,5H30V6H29zM30,5H31V6H30zM34,5H35V6H34zM35,5H36V6H35zM38,5H39V6H38zM40,5H41V6H40zM41,5H42V6H41zM47,5H48V6H47zM49,5H50V6H49zM52,5H53V6H52zM53,5H54V6H53zM55,5H56V6H55zM58,5H59V6H58zM61,5H62V6H61zM66,5H67V6H66zM72,5H73V6H72zM4,6H5V7H4zM6,6H7V7H6zM7,6H8V7H7zM8,6H9V7H8zM10,6H11V7H10zM14,6H15V7H14zM15,6H16V7H15zM20,6H21V7H20zM21,6H22V7H21zM27,6H28V7H27zM29,6H30V7H29zM34,6H35V7H34zM39,6H40V7H39zM40,6H41V7H40zM41,6H42V7H41zM42,6H43V7H42zM43,6H44V7H43zM46,6H47V7H46zM49,6H50V7H49zM52,6H53V7H52zM55,6H56V7H55zM56,6H57V7H56zM60,6H61V7H60zM61,6H62V7H61zM62,6H63V7H62zM66,6H67V7H66zM68,6H69V7H68zM69,6H70V7H69zM70,6H71V7H70zM72,6H73V7H72zM4,7H5V8H4zM6,7H7V8H6zM7,7H8V8H7zM8,7H9V8H8zM10,7H11V8H10zM12,7H13V8H12zM13,7H14V8H13zM14,7H15V8H14zM15,7H16V8H15zM18,7H19V8H18zM23,7H24V8H23zM25,7H26V8H25zM26,7H27V8H26zM27,7H28V8H27zM28,7H29V8H28zM31,7H32V8H31zM35,7H36V8H35zM37,7H38V8H37zM38,7H39V8H38zM40,7H41V8H40zM41,7H42V8H41zM42,7H43V8H42zM44,7H45V8H44zM46,7H47V8H46zM47,7H48V8H47zM50,7H51V8H50zM53,7H54V8H53zM54,7H55V8H54zM56,7H57V8H56zM57,7H58V8H57zM64,7H65V8H64zM66,7H67V8H66zM68,7H69V8H68zM69,7H70V8H69zM70,7H71V8H70zM72,7H73V8H72zM4,8H5V9H4zM6,8H7V9H6zM7,8H8V9H7zM8,8H9V9H8zM10,8H11V9H10zM12,8H13V9H12zM13,8H14V9H13zM14,8H15V9H14zM15,8H16V9H15zM16,8H17V9H16zM21,8H22V9H21zM23,8H24V9H23zM25,8H26V9H25zM30,8H31V9H30zM35,8H36V9H35zM36,8H37V9H36zM37,8H38V9H37zM38,8H39V9H38zM39,8H40V9H39zM40,8H41V9H40zM42,8H43V9H42zM43,8H44V9H43zM45,8H46V9H45zM46,8H47V9H46zM47,8H48V9H47zM48,8H49V9H48zM49,8H50V9H49zM51,8H52V9H51zM52,8H53V9H52zM54,8H55V9H54zM56,8H57V9H56zM57,8H58V9H57zM58,8H59V9H58zM59,8H60V9H59zM61,8H62V9H61zM62,8H63V9H62zM64,8H65V9H64zM66,8H67V9H66zM68,8H69V9H68zM69,8H70V9H69zM70,8H71V9H70zM72,8H73V9H72zM4,9H5V10H4zM10,9H11V10H10zM12,9H13V10H12zM15,9H16V10H15zM17,9H18V10H17zM18,9H19V10H18zM20,9H21V10H20zM21,9H22V10H21zM22,9H23V10H22zM23,9H24V10H23zM26,9H27V10H26zM28,9H29V10H28zM31,9H32V10H31zM35,9H36V10H35zM36,9H37V10H36zM40,9H41V10H40zM45,9H46V10H45zM48,9H49V10H48zM51,9H52V10H51zM52,9H53V10H52zM53,9H54V10H53zM54,9H55V10H54zM55,9H56V10H55zM57,9H58V10H57zM59,9H60V10H59zM60,9H61V10H60zM62,9H63V10H62zM66,9H67V10H66zM72,9H73V10H72zM4,10H5V11H4zM5,10H6V11H5zM6,10H7V11H6zM7,10H8V11H7zM8,10H9V11H8zM9,10H10V11H9zM10,10H11V11H10zM12,10H13V11H12zM14,10H15V11H14zM16,10H17V11H16zM18,10H19V11H18zM20,10H21V11H20zM22,10H23V11H22zM24,10H25V11H24zM26,10H27V11H26zM28,10H29V11H28zM30,10H31V11H30zM32,10H33V11H32zM34,10H35V11H34zM36,10H37V11H36zM38,10H39V11H38zM40,10H41V11H40zM42,10H43V11H42zM44,10H45V11H44zM46,10H47V11H46zM48,10H49V11H48zM50,10H51V11H50zM52,10H53V11H52zM54,10H55V11H54zM56,10H57V11H56zM58,10H59V11H58zM60,10H61V11H60zM62,10H63V11H62zM64,10H65V11H64zM66,10H67V11H66zM67,10H68V11H67zM68,10H69V11H68zM69,10H70V11H69zM70,10H71V11H70zM71,10H72V11H71zM72,10H73V11H72zM12,11H13V12H12zM15,11H16V12H15zM17,11H18V12H17zM21,11H22V12H21zM22,11H23V12H22zM24,11H25V12H24zM25,11H26V12H25zM26,11H27V12H26zM30,11H31V12H30zM34,11H35V12H34zM35,11H36V12H35zM36,11H37V12H36zM40,11H41V12H40zM45,11H46V12H45zM47,11H48V12H47zM48,11H49V12H48zM49,11H50V12H49zM50,11H51V12H50zM54,11H55V12H54zM55,11H56V12H55zM56,11H57V12H56zM57,11H58V12H57zM60,11H61V12H60zM61,11H62V12H61zM62,11H63V12H62zM4,12H5V13H4zM8,12H9V13H8zM10,12H11V13H10zM11,12H12V13H11zM12,12H13V13H12zM14,12H15V13H14zM16,12H17V13H16zM18,12H19V13H18zM19,12H20V13H19zM27,12H28V13H27zM34,12H35V13H34zM35,12H36V13H35zM36,12H37V13H36zM37,12H38V13H37zM38,12H39V13H38zM39,12H40V13H39zM40,12H41V13H40zM42,12H43V13H42zM45,12H46V13H45zM46,12H47V13H46zM48,12H49V13H48zM49,12H50V13H49zM51,12H52V13H51zM52,12H53V13H52zM57,12H58V13H57zM58,12H59V13H58zM60,12H61V13H60zM61,12H62V13H61zM65,12H66V13H65zM66,12H67V13H66zM67,12H68V13H67zM68,12H69V13H68zM69,12H70V13H69zM72,12H73V13H72zM4,13H5V14H4zM7,13H8V14H7zM8,13H9V14H8zM11,13H12V14H11zM13,13H14V14H13zM14,13H15V14H14zM15,13H16V14H15zM16,13H17V14H16zM17,13H18V14H17zM18,13H19V14H18zM21,13H22V14H21zM23,13H24V14H23zM25,13H26V14H25zM29,13H30V14H29zM30,13H31V14H30zM31,13H32V14H31zM33,13H34V14H33zM35,13H36V14H35zM36,13H37V14H36zM38,13H39V14H38zM42,13H43V14H42zM43,13H44V14H43zM46,13H47V14H46zM48,13H49V14H48zM49,13H50V14H49zM52,13H53V14H52zM54,13H55V14H54zM57,13H58V14H57zM58,13H59V14H58zM60,13H61V14H60zM61,13H62V14H61zM63,13H64V14H63zM64,13H65V14H64zM66,13H67V14H66zM70,13H71V14H70zM71,13H72V14H71zM4,14H5V15H4zM5,14H6V15H5zM6,14H7V15H6zM8,14H9V15H8zM10,14H11V15H10zM12,14H13V15H12zM13,14H14V15H13zM15,14H16V15H15zM19,14H20V15H19zM20,14H21V15H20zM21,14H22V15H21zM23,14H24V15H23zM24,14H25V15H24zM26,14H27V15H26zM27,14H28V15H27zM32,14H33V15H32zM34,14H35V15H34zM36,14H37V15H36zM37,14H38V15H37zM38,14H39V15H38zM41,14H42V15H41zM44,14H45V15H44zM49,14H50V15H49zM51,14H52V15H51zM53,14H54V15H53zM56,14H57V15H56zM57,14H58V15H57zM58,14H59V15H58zM61,14H62V15H61zM67,14H68V15H67zM68,14H69V15H68zM69,14H70V15H69zM4,15H5V16H4zM5,15H6V16H5zM6,15H7V16H6zM8,15H9V16H8zM16,15H17V16H16zM17,15H18V16H17zM19,15H20V16H19zM20,15H21V16H20zM21,15H22V16H21zM22,15H23V16H22zM23,15H24V16H23zM26,15H27V16H26zM27,15H28V16H27zM28,15H29V16H28zM30,15H31V16H30zM32,15H33V16H32zM34,15H35V16H34zM35,15H36V16H35zM38,15H39V16H38zM39,15H40V16H39zM45,15H46V16H45zM47,15H48V16H47zM50,15H51V16H50zM51,15H52V16H51zM54,15H55V16H54zM55,15H56V16H55zM59,15H60V16H59zM67,15H68V16H67zM72,15H73V16H72zM4,16H5V17H4zM10,16H11V17H10zM12,16H13V17H12zM13,16H14V17H13zM14,16H15V17H14zM16,16H17V17H16zM17,16H18V17H17zM18,16H19V17H18zM20,16H21V17H20zM21,16H22V17H21zM23,16H24V17H23zM28,16H29V17H28zM31,16H32V17H31zM32,16H33V17H32zM33,16H34V17H33zM34,16H35V17H34zM36,16H37V17H36zM38,16H39V17H38zM40,16H41V17H40zM45,16H46V17H45zM48,16H49V17H48zM52,16H53V17H52zM53,16H54V17H53zM55,16H56V17H55zM57,16H58V17H57zM58,16H59V17H58zM60,16H61V17H60zM62,16H63V17H62zM64,16H65V17H64zM65,16H66V17H65zM66,16H67V17H66zM67,16H68V17H67zM71,16H72V17H71zM5,17H6V18H5zM6,17H7V18H6zM12,17H13V18H12zM13,17H14V18H13zM15,17H16V18H15zM26,17H27V18H26zM27,17H28V18H27zM28,17H29V18H28zM30,17H31V18H30zM31,17H32V18H31zM36,17H37V18H36zM37,17H38V18H37zM41,17H42V18H41zM42,17H43V18H42zM43,17H44V18H43zM44,17H45V18H44zM46,17H47V18H46zM49,17H50V18H49zM51,17H52V18H51zM52,17H53V18H52zM53,17H54V18H53zM54,17H55V18H54zM58,17H59V18H58zM60,17H61V18H60zM61,17H62V18H61zM63,17H64V18H63zM64,17H65V18H64zM66,17H67V18H66zM67,17H68V18H67zM69,17H70V18H69zM70,17H71V18H70zM71,17H72V18H71zM6,18H7V19H6zM7,18H8V19H7zM8,18H9V19H8zM10,18H11V19H10zM11,18H12V19H11zM13,18H14V19H13zM20,18H21V19H20zM25,18H26V19H25zM28,18H29V19H28zM29,18H30V19H29zM30,18H31V19H30zM31,18H32V19H31zM32,18H33V19H32zM33,18H34V19H33zM34,18H35V19H34zM36,18H37V19H36zM42,18H43V19H42zM44,18H45V19H44zM45,18H46V19H45zM46,18H47V19H46zM47,18H48V19H47zM48,18H49V19H48zM49,18H50V19H49zM50,18H51V19H50zM52,18H53V19H52zM54,18H55V19H54zM56,18H57V19H56zM57,18H58V19H57zM58,18H59V19H58zM61,18H62V19H61zM62,18H63V19H62zM63,18H64V19H63zM64,18H65V19H64zM65,18H66V19H65zM66,18H67V19H66zM67,18H68V19H67zM68,18H69V19H68zM69,18H70V19H69zM70,18H71V19H70zM6,19H7V20H6zM9,19H10V20H9zM11,19H12V20H11zM13,19H14V20H13zM16,19H17V20H16zM17,19H18V20H17zM20,19H21V20H20zM22,19H23V20H22zM23,19H24V20H23zM25,19H26V20H25zM26,19H27V20H26zM27,19H28V20H27zM28,19H29V20H28zM31,19H32V20H31zM32,19H33V20H32zM33,19H34V20H33zM35,19H36V20H35zM38,19H39V20H38zM39,19H40V20H39zM43,19H44V20H43zM44,19H45V20H44zM45,19H46V20H45zM46,19H47V20H46zM47,19H48V20H47zM50,19H51V20H50zM51,19H52V20H51zM52,19H53V20H52zM53,19H54V20H53zM54,19H55V20H54zM56,19H57V20H56zM57,19H58V20H57zM61,19H62V20H61zM63,19H64V20H63zM65,19H66V20H65zM66,19H67V20H66zM67,19H68V20H67zM68,19H69V20H68zM71,19H72V20H71zM4,20H5V21H4zM7,20H8V21H7zM10,20H11V21H10zM12,20H13V21H12zM13,20H14V21H13zM15,20H16V21H15zM16,20H17V21H16zM17,20H18V21H17zM18,20H19V21H18zM19,20H20V21H19zM20,20H21V21H20zM21,20H22V21H21zM24,20H25V21H24zM26,20H27V21H26zM27,20H28V21H27zM31,20H32V21H31zM32,20H33V21H32zM33,20H34V21H33zM34,20H35V21H34zM35,20H36V21H35zM36,20H37V21H36zM38,20H39V21H38zM39,20H40V21H39zM40,20H41V21H40zM42,20H43V21H42zM43,20H44V21H43zM48,20H49V21H48zM49,20H50V21H49zM51,20H52V21H51zM52,20H53V21H52zM53,20H54V21H53zM55,20H56V21H55zM57,20H58V21H57zM60,20H61V21H60zM62,20H63V21H62zM63,20H64V21H63zM65,20H66V21H65zM72,20H73V21H72zM6,21H7V22H6zM8,21H9V22H8zM11,21H12V22H11zM14,21H15V22H14zM15,21H16V22H15zM16,21H17V22H16zM18,21H19V22H18zM19,21H20V22H19zM20,21H21V22H20zM22,21H23V22H22zM23,21H24V22H23zM27,21H28V22H27zM29,21H30V22H29zM30,21H31V22H30zM31,21H32V22H31zM33,21H34V22H33zM36,21H37V22H36zM37,21H38V22H37zM38,21H39V22H38zM39,21H40V22H39zM40,21H41V22H40zM41,21H42V22H41zM42,21H43V22H42zM44,21H45V22H44zM45,21H46V22H45zM46,21H47V22H46zM54,21H55V22H54zM57,21H58V22H57zM58,21H59V22H58zM59,21H60V22H59zM61,21H62V22H61zM64,21H65V22H64zM65,21H66V22H65zM66,21H67V22H66zM67,21H68V22H67zM69,21H70V22H69zM70,21H71V22H70zM4,22H5V23H4zM5,22H6V23H5zM6,22H7V23H6zM10,22H11V23H10zM12,22H13V23H12zM14,22H15V23H14zM15,22H16V23H15zM16,22H17V23H16zM17,22H18V23H17zM19,22H20V23H19zM20,22H21V23H20zM21,22H22V23H21zM22,22H23V23H22zM27,22H28V23H27zM28,22H29V23H28zM29,22H30V23H29zM32,22H33V23H32zM36,22H37V23H36zM37,22H38V23H37zM38,22H39V23H38zM41,22H42V23H41zM43,22H44V23H43zM45,22H46V23H45zM48,22H49V23H48zM52,22H53V23H52zM54,22H55V23H54zM55,22H56V23H55zM56,22H57V23H56zM58,22H59V23H58zM59,22H60V23H59zM62,22H63V23H62zM63,22H64V23H63zM64,22H65V23H64zM68,22H69V23H68zM6,23H7V24H6zM9,23H10V24H9zM11,23H12V24H11zM12,23H13V24H12zM14,23H15V24H14zM15,23H16V24H15zM18,23H19V24H18zM21,23H22V24H21zM22,23H23V24H22zM23,23H24V24H23zM25,23H26V24H25zM27,23H28V24H27zM31,23H32V24H31zM32,23H33V24H32zM33,23H34V24H33zM34,23H35V24H34zM38,23H39V24H38zM41,23H42V24H41zM42,23H43V24H42zM43,23H44V24H43zM44,23H45V24H44zM51,23H52V24H51zM55,23H56V24H55zM57,23H58V24H57zM59,23H60V24H59zM60,23H61V24H60zM62,23H63V24H62zM65,23H66V24H65zM8,24H9V25H8zM9,24H10V25H9zM10,24H11V25H10zM13,24H14V25H13zM15,24H16V25H15zM19,24H20V25H19zM21,24H22V25H21zM27,24H28V25H27zM28,24H29V25H28zM29,24H30V25H29zM30,24H31V25H30zM31,24H32V25H31zM32,24H33V25H32zM34,24H35V25H34zM35,24H36V25H35zM36,24H37V25H36zM39,24H40V25H39zM40,24H41V25H40zM41,24H42V25H41zM43,24H44V25H43zM44,24H45V25H44zM46,24H47V25H46zM47,24H48V25H47zM48,24H49V25H48zM49,24H50V25H49zM50,24H51V25H50zM51,24H52V25H51zM52,24H53V25H52zM53,24H54V25H53zM54,24H55V25H54zM57,24H58V25H57zM60,24H61V25H60zM62,24H63V25H62zM70,24H71V25H70zM72,24H73V25H72zM6,25H7V26H6zM7,25H8V26H7zM8,25H9V26H8zM12,25H13V26H12zM13,25H14V26H13zM16,25H17V26H16zM17,25H18V26H17zM19,25H20V26H19zM22,25H23V26H22zM25,25H26V26H25zM27,25H28V26H27zM28,25H29V26H28zM29,25H30V26H29zM35,25H36V26H35zM36,25H37V26H36zM37,25H38V26H37zM41,25H42V26H41zM42,25H43V26H42zM44,25H45V26H44zM45,25H46V26H45zM46,25H47V26H46zM48,25H49V26H48zM49,25H50V26H49zM52,25H53V26H52zM54,25H55V26H54zM55,25H56V26H55zM57,25H58V26H57zM58,25H59V26H58zM60,25H61V26H60zM61,25H62V26H61zM63,25H64V26H63zM64,25H65V26H64zM66,25H67V26H66zM68,25H69V26H68zM69,25H70V26H69zM70,25H71V26H70zM71,25H72V26H71zM72,25H73V26H72zM4,26H5V27H4zM7,26H8V27H7zM9,26H10V27H9zM10,26H11V27H10zM11,26H12V27H11zM12,26H13V27H12zM16,26H17V27H16zM17,26H18V27H17zM21,26H22V27H21zM24,26H25V27H24zM25,26H26V27H25zM28,26H29V27H28zM29,26H30V27H29zM30,26H31V27H30zM32,26H33V27H32zM36,26H37V27H36zM37,26H38V27H37zM38,26H39V27H38zM41,26H42V27H41zM42,26H43V27H42zM47,26H48V27H47zM49,26H50V27H49zM51,26H52V27H51zM53,26H54V27H53zM54,26H55V27H54zM56,26H57V27H56zM57,26H58V27H57zM59,26H60V27H59zM61,26H62V27H61zM62,26H63V27H62zM68,26H69V27H68zM69,26H70V27H69zM71,26H72V27H71zM5,27H6V28H5zM6,27H7V28H6zM8,27H9V28H8zM12,27H13V28H12zM13,27H14V28H13zM15,27H16V28H15zM16,27H17V28H16zM19,27H20V28H19zM20,27H21V28H20zM21,27H22V28H21zM22,27H23V28H22zM23,27H24V28H23zM27,27H28V28H27zM28,27H29V28H28zM30,27H31V28H30zM31,27H32V28H31zM32,27H33V28H32zM33,27H34V28H33zM34,27H35V28H34zM35,27H36V28H35zM38,27H39V28H38zM42,27H43V28H42zM45,27H46V28H45zM47,27H48V28H47zM48,27H49V28H48zM49,27H50V28H49zM53,27H54V28H53zM57,27H58V28H57zM60,27H61V28H60zM66,27H67V28H66zM67,27H68V28H67zM68,27H69V28H68zM4,28H5V29H4zM5,28H6V29H5zM6,28H7V29H6zM7,28H8V29H7zM8,28H9V29H8zM9,28H10V29H9zM10,28H11V29H10zM11,28H12V29H11zM12,28H13V29H12zM17,28H18V29H17zM20,28H21V29H20zM22,28H23V29H22zM24,28H25V29H24zM25,28H26V29H25zM26,28H27V29H26zM28,28H29V29H28zM30,28H31V29H30zM33,28H34V29H33zM34,28H35V29H34zM35,28H36V29H35zM39,28H40V29H39zM40,28H41V29H40zM41,28H42V29H41zM43,28H44V29H43zM47,28H48V29H47zM48,28H49V29H48zM50,28H51V29H50zM51,28H52V29H51zM52,28H53V29H52zM54,28H55V29H54zM60,28H61V29H60zM62,28H63V29H62zM64,28H65V29H64zM67,28H68V29H67zM70,28H71V29H70zM72,28H73V29H72zM4,29H5V30H4zM8,29H9V30H8zM14,29H15V30H14zM17,29H18V30H17zM19,29H20V30H19zM23,29H24V30H23zM24,29H25V30H24zM26,29H27V30H26zM28,29H29V30H28zM30,29H31V30H30zM31,29H32V30H31zM35,29H36V30H35zM40,29H41V30H40zM42,29H43V30H42zM44,29H45V30H44zM45,29H46V30H45zM46,29H47V30H46zM47,29H48V30H47zM49,29H50V30H49zM53,29H54V30H53zM54,29H55V30H54zM55,29H56V30H55zM56,29H57V30H56zM57,29H58V30H57zM58,29H59V30H58zM61,29H62V30H61zM63,29H64V30H63zM64,29H65V30H64zM65,29H66V30H65zM66,29H67V30H66zM68,29H69V30H68zM69,29H70V30H69zM70,29H71V30H70zM71,29H72V30H71zM4,30H5V31H4zM9,30H10V31H9zM10,30H11V31H10zM11,30H12V31H11zM15,30H16V31H15zM16,30H17V31H16zM18,30H19V31H18zM19,30H20V31H19zM23,30H24V31H23zM24,30H25V31H24zM31,30H32V31H31zM32,30H33V31H32zM33,30H34V31H33zM36,30H37V31H36zM37,30H38V31H37zM43,30H44V31H43zM44,30H45V31H44zM45,30H46V31H45zM48,30H49V31H48zM49,30H50V31H49zM50,30H51V31H50zM51,30H52V31H51zM52,30H53V31H52zM54,30H55V31H54zM55,30H56V31H55zM56,30H57V31H56zM57,30H58V31H57zM61,30H62V31H61zM63,30H64V31H63zM64,30H65V31H64zM65,30H66V31H65zM66,30H67V31H66zM67,30H68V31H67zM71,30H72V31H71zM4,31H5V32H4zM5,31H6V32H5zM7,31H8V32H7zM9,31H10V32H9zM12,31H13V32H12zM16,31H17V32H16zM19,31H20V32H19zM20,31H21V32H20zM21,31H22V32H21zM22,31H23V32H22zM24,31H25V32H24zM26,31H27V32H26zM27,31H28V32H27zM30,31H31V32H30zM32,31H33V32H32zM33,31H34V32H33zM34,31H35V32H34zM35,31H36V32H35zM38,31H39V32H38zM41,31H42V32H41zM42,31H43V32H42zM43,31H44V32H43zM45,31H46V32H45zM50,31H51V32H50zM51,31H52V32H51zM52,31H53V32H52zM53,31H54V32H53zM54,31H55V32H54zM57,31H58V32H57zM58,31H59V32H58zM60,31H61V32H60zM62,31H63V32H62zM63,31H64V32H63zM64,31H65V32H64zM65,31H66V32H65zM71,31H72V32H71zM4,32H5V33H4zM8,32H9V33H8zM10,32H11V33H10zM11,32H12V33H11zM17,32H18V33H17zM18,32H19V33H18zM19,32H20V33H19zM20,32H21V33H20zM22,32H23V33H22zM24,32H25V33H24zM25,32H26V33H25zM26,32H27V33H26zM27,32H28V33H27zM28,32H29V33H28zM30,32H31V33H30zM32,32H33V33H32zM33,32H34V33H33zM34,32H35V33H34zM35,32H36V33H35zM39,32H40V33H39zM40,32H41V33H40zM42,32H43V33H42zM43,32H44V33H43zM45,32H46V33H45zM51,32H52V33H51zM52,32H53V33H52zM53,32H54V33H53zM58,32H59V33H58zM60,32H61V33H60zM61,32H62V33H61zM62,32H63V33H62zM63,32H64V33H63zM65,32H66V33H65zM8,33H9V34H8zM14,33H15V34H14zM16,33H17V34H16zM19,33H20V34H19zM21,33H22V34H21zM22,33H23V34H22zM23,33H24V34H23zM24,33H25V34H24zM25,33H26V34H25zM28,33H29V34H28zM31,33H32V34H31zM37,33H38V34H37zM42,33H43V34H42zM43,33H44V34H43zM45,33H46V34H45zM46,33H47V34H46zM47,33H48V34H47zM49,33H50V34H49zM52,33H53V34H52zM57,33H58V34H57zM58,33H59V34H58zM59,33H60V34H59zM60,33H61V34H60zM64,33H65V34H64zM66,33H67V34H66zM67,33H68V34H67zM68,33H69V34H68zM69,33H70V34H69zM5,34H6V35H5zM6,34H7V35H6zM8,34H9V35H8zM10,34H11V35H10zM12,34H13V35H12zM14,34H15V35H14zM15,34H16V35H15zM17,34H18V35H17zM19,34H20V35H19zM21,34H22V35H21zM23,34H24V35H23zM25,34H26V35H25zM26,34H27V35H26zM27,34H28V35H27zM28,34H29V35H28zM30,34H31V35H30zM32,34H33V35H32zM34,34H35V35H34zM36,34H37V35H36zM38,34H39V35H38zM43,34H44V35H43zM44,34H45V35H44zM45,34H46V35H45zM46,34H47V35H46zM47,34H48V35H47zM48,34H49V35H48zM49,34H50V35H49zM51,34H52V35H51zM52,34H53V35H52zM57,34H58V35H57zM58,34H59V35H58zM60,34H61V35H60zM61,34H62V35H61zM62,34H63V35H62zM63,34H64V35H63zM64,34H65V35H64zM66,34H67V35H66zM67,34H68V35H67zM69,34H70V35H69zM5,35H6V36H5zM6,35H7V36H6zM8,35H9V36H8zM9,35H10V36H9zM13,35H14V36H13zM20,35H21V36H20zM22,35H23V36H22zM25,35H26V36H25zM28,35H29V36H28zM30,35H31V36H30zM31,35H32V36H31zM32,35H33V36H32zM33,35H34V36H33zM34,35H35V36H34zM38,35H39V36H38zM40,35H41V36H40zM42,35H43V36H42zM43,35H44V36H43zM48,35H49V36H48zM50,35H51V36H50zM51,35H52V36H51zM53,35H54V36H53zM55,35H56V36H55zM56,35H57V36H56zM57,35H58V36H57zM59,35H60V36H59zM60,35H61V36H60zM64,35H65V36H64zM65,35H66V36H65zM67,35H68V36H67zM68,35H69V36H68zM71,35H72V36H71zM4,36H5V37H4zM7,36H8V37H7zM8,36H9V37H8zM9,36H10V37H9zM10,36H11V37H10zM11,36H12V37H11zM12,36H13V37H12zM13,36H14V37H13zM14,36H15V37H14zM15,36H16V37H15zM17,36H18V37H17zM21,36H22V37H21zM23,36H24V37H23zM25,36H26V37H25zM26,36H27V37H26zM27,36H28V37H27zM29,36H30V37H29zM30,36H31V37H30zM33,36H34V37H33zM35,36H36V37H35zM36,36H37V37H36zM37,36H38V37H37zM38,36H39V37H38zM39,36H40V37H39zM40,36H41V37H40zM41,36H42V37H41zM42,36H43V37H42zM43,36H44V37H43zM45,36H46V37H45zM46,36H47V37H46zM48,36H49V37H48zM50,36H51V37H50zM51,36H52V37H51zM52,36H53V37H52zM54,36H55V37H54zM55,36H56V37H55zM58,36H59V37H58zM60,36H61V37H60zM64,36H65V37H64zM65,36H66V37H65zM66,36H67V37H66zM67,36H68V37H67zM68,36H69V37H68zM70,36H71V37H70zM71,36H72V37H71zM72,36H73V37H72zM5,37H6V38H5zM6,37H7V38H6zM7,37H8V38H7zM8,37H9V38H8zM12,37H13V38H12zM13,37H14V38H13zM14,37H15V38H14zM17,37H18V38H17zM18,37H19V38H18zM19,37H20V38H19zM20,37H21V38H20zM21,37H22V38H21zM22,37H23V38H22zM23,37H24V38H23zM26,37H27V38H26zM27,37H28V38H27zM29,37H30V38H29zM30,37H31V38H30zM31,37H32V38H31zM32,37H33V38H32zM34,37H35V38H34zM36,37H37V38H36zM40,37H41V38H40zM42,37H43V38H42zM44,37H45V38H44zM46,37H47V38H46zM47,37H48V38H47zM48,37H49V38H48zM49,37H50V38H49zM51,37H52V38H51zM54,37H55V38H54zM58,37H59V38H58zM59,37H60V38H59zM60,37H61V38H60zM64,37H65V38H64zM68,37H69V38H68zM69,37H70V38H69zM70,37H71V38H70zM72,37H73V38H72zM7,38H8V39H7zM8,38H9V39H8zM10,38H11V39H10zM12,38H13V39H12zM13,38H14V39H13zM16,38H17V39H16zM18,38H19V39H18zM21,38H22V39H21zM22,38H23V39H22zM23,38H24V39H23zM25,38H26V39H25zM31,38H32V39H31zM36,38H37V39H36zM38,38H39V39H38zM40,38H41V39H40zM42,38H43V39H42zM44,38H45V39H44zM46,38H47V39H46zM47,38H48V39H47zM48,38H49V39H48zM49,38H50V39H49zM51,38H52V39H51zM53,38H54V39H53zM55,38H56V39H55zM56,38H57V39H56zM57,38H58V39H57zM58,38H59V39H58zM60,38H61V39H60zM64,38H65V39H64zM66,38H67V39H66zM68,38H69V39H68zM69,38H70V39H69zM71,38H72V39H71zM5,39H6V40H5zM8,39H9V40H8zM12,39H13V40H12zM15,39H16V40H15zM16,39H17V40H16zM17,39H18V40H17zM23,39H24V40H23zM24,39H25V40H24zM25,39H26V40H25zM28,39H29V40H28zM35,39H36V40H35zM36,39H37V40H36zM40,39H41V40H40zM41,39H42V40H41zM43,39H44V40H43zM45,39H46V40H45zM48,39H49V40H48zM51,39H52V40H51zM55,39H56V40H55zM57,39H58V40H57zM62,39H63V40H62zM63,39H64V40H63zM64,39H65V40H64zM68,39H69V40H68zM69,39H70V40H69zM5,40H6V41H5zM7,40H8V41H7zM8,40H9V41H8zM9,40H10V41H9zM10,40H11V41H10zM11,40H12V41H11zM12,40H13V41H12zM13,40H14V41H13zM15,40H16V41H15zM17,40H18V41H17zM18,40H19V41H18zM20,40H21V41H20zM24,40H25V41H24zM26,40H27V41H26zM28,40H29V41H28zM29,40H30V41H29zM30,40H31V41H30zM32,40H33V41H32zM34,40H35V41H34zM36,40H37V41H36zM37,40H38V41H37zM38,40H39V41H38zM39,40H40V41H39zM40,40H41V41H40zM42,40H43V41H42zM43,40H44V41H43zM46,40H47V41H46zM48,40H49V41H48zM50,40H51V41H50zM51,40H52V41H51zM53,40H54V41H53zM54,40H55V41H54zM55,40H56V41H55zM57,40H58V41H57zM58,40H59V41H58zM60,40H61V41H60zM63,40H64V41H63zM64,40H65V41H64zM65,40H66V41H65zM66,40H67V41H66zM67,40H68V41H67zM68,40H69V41H68zM69,40H70V41H69zM71,40H72V41H71zM72,40H73V41H72zM6,41H7V42H6zM8,41H9V42H8zM11,41H12V42H11zM14,41H15V42H14zM15,41H16V42H15zM16,41H17V42H16zM17,41H18V42H17zM18,41H19V42H18zM19,41H20V42H19zM25,41H26V42H25zM26,41H27V42H26zM28,41H29V42H28zM33,41H34V42H33zM37,41H38V42H37zM38,41H39V42H38zM39,41H40V42H39zM41,41H42V42H41zM42,41H43V42H42zM44,41H45V42H44zM45,41H46V42H45zM46,41H47V42H46zM49,41H50V42H49zM50,41H51V42H50zM54,41H55V42H54zM55,41H56V42H55zM57,41H58V42H57zM58,41H59V42H58zM60,41H61V42H60zM61,41H62V42H61zM67,41H68V42H67zM69,41H70V42H69zM71,41H72V42H71zM4,42H5V43H4zM6,42H7V43H6zM9,42H10V43H9zM10,42H11V43H10zM12,42H13V43H12zM13,42H14V43H13zM14,42H15V43H14zM15,42H16V43H15zM16,42H17V43H16zM19,42H20V43H19zM20,42H21V43H20zM21,42H22V43H21zM27,42H28V43H27zM29,42H30V43H29zM32,42H33V43H32zM36,42H37V43H36zM39,42H40V43H39zM40,42H41V43H40zM49,42H50V43H49zM50,42H51V43H50zM52,42H53V43H52zM56,42H57V43H56zM57,42H58V43H57zM59,42H60V43H59zM61,42H62V43H61zM63,42H64V43H63zM68,42H69V43H68zM69,42H70V43H69zM70,42H71V43H70zM71,42H72V43H71zM5,43H6V44H5zM7,43H8V44H7zM8,43H9V44H8zM11,43H12V44H11zM14,43H15V44H14zM15,43H16V44H15zM16,43H17V44H16zM17,43H18V44H17zM22,43H23V44H22zM23,43H24V44H23zM24,43H25V44H24zM26,43H27V44H26zM27,43H28V44H27zM28,43H29V44H28zM29,43H30V44H29zM31,43H32V44H31zM37,43H38V44H37zM38,43H39V44H38zM41,43H42V44H41zM43,43H44V44H43zM45,43H46V44H45zM47,43H48V44H47zM51,43H52V44H51zM52,43H53V44H52zM53,43H54V44H53zM56,43H57V44H56zM59,43H60V44H59zM60,43H61V44H60zM61,43H62V44H61zM62,43H63V44H62zM64,43H65V44H64zM65,43H66V44H65zM66,43H67V44H66zM68,43H69V44H68zM4,44H5V45H4zM6,44H7V45H6zM7,44H8V45H7zM9,44H10V45H9zM10,44H11V45H10zM13,44H14V45H13zM15,44H16V45H15zM18,44H19V45H18zM19,44H20V45H19zM20,44H21V45H20zM21,44H22V45H21zM23,44H24V45H23zM25,44H26V45H25zM26,44H27V45H26zM27,44H28V45H27zM30,44H31V45H30zM32,44H33V45H32zM34,44H35V45H34zM35,44H36V45H35zM37,44H38V45H37zM39,44H40V45H39zM42,44H43V45H42zM43,44H44V45H43zM46,44H47V45H46zM48,44H49V45H48zM49,44H50V45H49zM50,44H51V45H50zM51,44H52V45H51zM52,44H53V45H52zM54,44H55V45H54zM55,44H56V45H55zM58,44H59V45H58zM60,44H61V45H60zM62,44H63V45H62zM65,44H66V45H65zM68,44H69V45H68zM71,44H72V45H71zM72,44H73V45H72zM5,45H6V46H5zM6,45H7V46H6zM8,45H9V46H8zM9,45H10V46H9zM13,45H14V46H13zM14,45H15V46H14zM15,45H16V46H15zM16,45H17V46H16zM17,45H18V46H17zM18,45H19V46H18zM24,45H25V46H24zM27,45H28V46H27zM30,45H31V46H30zM31,45H32V46H31zM34,45H35V46H34zM38,45H39V46H38zM42,45H43V46H42zM44,45H45V46H44zM45,45H46V46H45zM46,45H47V46H46zM49,45H50V46H49zM52,45H53V46H52zM54,45H55V46H54zM56,45H57V46H56zM57,45H58V46H57zM58,45H59V46H58zM60,45H61V46H60zM61,45H62V46H61zM65,45H66V46H65zM69,45H70V46H69zM71,45H72V46H71zM4,46H5V47H4zM6,46H7V47H6zM8,46H9V47H8zM9,46H10V47H9zM10,46H11V47H10zM12,46H13V47H12zM13,46H14V47H13zM14,46H15V47H14zM17,46H18V47H17zM18,46H19V47H18zM20,46H21V47H20zM21,46H22V47H21zM23,46H24V47H23zM24,46H25V47H24zM25,46H26V47H25zM26,46H27V47H26zM27,46H28V47H27zM28,46H29V47H28zM31,46H32V47H31zM33,46H34V47H33zM34,46H35V47H34zM36,46H37V47H36zM37,46H38V47H37zM38,46H39V47H38zM42,46H43V47H42zM43,46H44V47H43zM45,46H46V47H45zM46,46H47V47H46zM47,46H48V47H47zM48,46H49V47H48zM49,46H50V47H49zM50,46H51V47H50zM55,46H56V47H55zM58,46H59V47H58zM59,46H60V47H59zM61,46H62V47H61zM63,46H64V47H63zM65,46H66V47H65zM68,46H69V47H68zM70,46H71V47H70zM7,47H8V48H7zM8,47H9V48H8zM9,47H10V48H9zM12,47H13V48H12zM17,47H18V48H17zM20,47H21V48H20zM22,47H23V48H22zM24,47H25V48H24zM26,47H27V48H26zM31,47H32V48H31zM32,47H33V48H32zM37,47H38V48H37zM38,47H39V48H38zM39,47H40V48H39zM43,47H44V48H43zM44,47H45V48H44zM46,47H47V48H46zM48,47H49V48H48zM49,47H50V48H49zM52,47H53V48H52zM53,47H54V48H53zM55,47H56V48H55zM56,47H57V48H56zM57,47H58V48H57zM58,47H59V48H58zM64,47H65V48H64zM65,47H66V48H65zM68,47H69V48H68zM69,47H70V48H69zM71,47H72V48H71zM72,47H73V48H72zM4,48H5V49H4zM5,48H6V49H5zM6,48H7V49H6zM9,48H10V49H9zM10,48H11V49H10zM13,48H14V49H13zM14,48H15V49H14zM15,48H16V49H15zM16,48H17V49H16zM18,48H19V49H18zM20,48H21V49H20zM22,48H23V49H22zM26,48H27V49H26zM34,48H35V49H34zM36,48H37V49H36zM37,48H38V49H37zM39,48H40V49H39zM40,48H41V49H40zM43,48H44V49H43zM48,48H49V49H48zM49,48H50V49H49zM51,48H52V49H51zM52,48H53V49H52zM53,48H54V49H53zM54,48H55V49H54zM55,48H56V49H55zM57,48H58V49H57zM58,48H59V49H58zM60,48H61V49H60zM65,48H66V49H65zM68,48H69V49H68zM4,49H5V50H4zM8,49H9V50H8zM11,49H12V50H11zM12,49H13V50H12zM14,49H15V50H14zM15,49H16V50H15zM16,49H17V50H16zM20,49H21V50H20zM23,49H24V50H23zM24,49H25V50H24zM27,49H28V50H27zM28,49H29V50H28zM29,49H30V50H29zM30,49H31V50H30zM31,49H32V50H31zM33,49H34V50H33zM35,49H36V50H35zM40,49H41V50H40zM41,49H42V50H41zM42,49H43V50H42zM45,49H46V50H45zM47,49H48V50H47zM49,49H50V50H49zM51,49H52V50H51zM54,49H55V50H54zM56,49H57V50H56zM57,49H58V50H57zM58,49H59V50H58zM59,49H60V50H59zM63,49H64V50H63zM65,49H66V50H65zM66,49H67V50H66zM69,49H70V50H69zM4,50H5V51H4zM5,50H6V51H5zM10,50H11V51H10zM13,50H14V51H13zM14,50H15V51H14zM16,50H17V51H16zM17,50H18V51H17zM18,50H19V51H18zM21,50H22V51H21zM23,50H24V51H23zM24,50H25V51H24zM25,50H26V51H25zM26,50H27V51H26zM27,50H28V51H27zM35,50H36V51H35zM37,50H38V51H37zM38,50H39V51H38zM39,50H40V51H39zM40,50H41V51H40zM42,50H43V51H42zM43,50H44V51H43zM44,50H45V51H44zM45,50H46V51H45zM52,50H53V51H52zM53,50H54V51H53zM55,50H56V51H55zM56,50H57V51H56zM58,50H59V51H58zM60,50H61V51H60zM61,50H62V51H61zM65,50H66V51H65zM67,50H68V51H67zM70,50H71V51H70zM5,51H6V52H5zM11,51H12V52H11zM12,51H13V52H12zM17,51H18V52H17zM26,51H27V52H26zM27,51H28V52H27zM28,51H29V52H28zM30,51H31V52H30zM31,51H32V52H31zM32,51H33V52H32zM34,51H35V52H34zM35,51H36V52H35zM36,51H37V52H36zM38,51H39V52H38zM43,51H44V52H43zM44,51H45V52H44zM46,51H47V52H46zM50,51H51V52H50zM51,51H52V52H51zM52,51H53V52H52zM53,51H54V52H53zM54,51H55V52H54zM57,51H58V52H57zM62,51H63V52H62zM64,51H65V52H64zM66,51H67V52H66zM67,51H68V52H67zM68,51H69V52H68zM71,51H72V52H71zM72,51H73V52H72zM4,52H5V53H4zM5,52H6V53H5zM7,52H8V53H7zM10,52H11V53H10zM11,52H12V53H11zM13,52H14V53H13zM14,52H15V53H14zM15,52H16V53H15zM16,52H17V53H16zM18,52H19V53H18zM21,52H22V53H21zM22,52H23V53H22zM26,52H27V53H26zM27,52H28V53H27zM28,52H29V53H28zM29,52H30V53H29zM31,52H32V53H31zM32,52H33V53H32zM33,52H34V53H33zM34,52H35V53H34zM39,52H40V53H39zM40,52H41V53H40zM41,52H42V53H41zM42,52H43V53H42zM43,52H44V53H43zM48,52H49V53H48zM49,52H50V53H49zM51,52H52V53H51zM52,52H53V53H52zM55,52H56V53H55zM58,52H59V53H58zM60,52H61V53H60zM68,52H69V53H68zM71,52H72V53H71zM72,52H73V53H72zM4,53H5V54H4zM5,53H6V54H5zM7,53H8V54H7zM8,53H9V54H8zM9,53H10V54H9zM16,53H17V54H16zM19,53H20V54H19zM20,53H21V54H20zM22,53H23V54H22zM23,53H24V54H23zM24,53H25V54H24zM25,53H26V54H25zM27,53H28V54H27zM29,53H30V54H29zM30,53H31V54H30zM31,53H32V54H31zM37,53H38V54H37zM42,53H43V54H42zM44,53H45V54H44zM46,53H47V54H46zM49,53H50V54H49zM51,53H52V54H51zM53,53H54V54H53zM54,53H55V54H54zM55,53H56V54H55zM58,53H59V54H58zM65,53H66V54H65zM69,53H70V54H69zM71,53H72V54H71zM5,54H6V55H5zM8,54H9V55H8zM10,54H11V55H10zM11,54H12V55H11zM13,54H14V55H13zM16,54H17V55H16zM19,54H20V55H19zM21,54H22V55H21zM22,54H23V55H22zM24,54H25V55H24zM26,54H27V55H26zM27,54H28V55H27zM28,54H29V55H28zM29,54H30V55H29zM30,54H31V55H30zM31,54H32V55H31zM32,54H33V55H32zM37,54H38V55H37zM38,54H39V55H38zM40,54H41V55H40zM42,54H43V55H42zM43,54H44V55H43zM44,54H45V55H44zM46,54H47V55H46zM47,54H48V55H47zM49,54H50V55H49zM50,54H51V55H50zM52,54H53V55H52zM54,54H55V55H54zM55,54H56V55H55zM56,54H57V55H56zM57,54H58V55H57zM58,54H59V55H58zM64,54H65V55H64zM65,54H66V55H65zM67,54H68V55H67zM70,54H71V55H70zM71,54H72V55H71zM4,55H5V56H4zM6,55H7V56H6zM7,55H8V56H7zM11,55H12V56H11zM14,55H15V56H14zM16,55H17V56H16zM18,55H19V56H18zM20,55H21V56H20zM23,55H24V56H23zM24,55H25V56H24zM25,55H26V56H25zM30,55H31V56H30zM32,55H33V56H32zM33,55H34V56H33zM36,55H37V56H36zM38,55H39V56H38zM41,55H42V56H41zM42,55H43V56H42zM43,55H44V56H43zM44,55H45V56H44zM46,55H47V56H46zM47,55H48V56H47zM48,55H49V56H48zM51,55H52V56H51zM52,55H53V56H52zM55,55H56V56H55zM59,55H60V56H59zM62,55H63V56H62zM63,55H64V56H63zM64,55H65V56H64zM66,55H67V56H66zM68,55H69V56H68zM71,55H72V56H71zM72,55H73V56H72zM5,56H6V57H5zM6,56H7V57H6zM7,56H8V57H7zM8,56H9V57H8zM10,56H11V57H10zM13,56H14V57H13zM16,56H17V57H16zM19,56H20V57H19zM20,56H21V57H20zM22,56H23V57H22zM24,56H25V57H24zM25,56H26V57H25zM27,56H28V57H27zM29,56H30V57H29zM30,56H31V57H30zM32,56H33V57H32zM33,56H34V57H33zM34,56H35V57H34zM35,56H36V57H35zM37,56H38V57H37zM40,56H41V57H40zM41,56H42V57H41zM45,56H46V57H45zM47,56H48V57H47zM48,56H49V57H48zM49,56H50V57H49zM51,56H52V57H51zM52,56H53V57H52zM58,56H59V57H58zM60,56H61V57H60zM62,56H63V57H62zM65,56H66V57H65zM66,56H67V57H66zM68,56H69V57H68zM69,56H70V57H69zM71,56H72V57H71zM72,56H73V57H72zM4,57H5V58H4zM5,57H6V58H5zM9,57H10V58H9zM12,57H13V58H12zM13,57H14V58H13zM14,57H15V58H14zM15,57H16V58H15zM16,57H17V58H16zM18,57H19V58H18zM19,57H20V58H19zM22,57H23V58H22zM23,57H24V58H23zM26,57H27V58H26zM28,57H29V58H28zM31,57H32V58H31zM33,57H34V58H33zM38,57H39V58H38zM40,57H41V58H40zM45,57H46V58H45zM46,57H47V58H46zM47,57H48V58H47zM48,57H49V58H48zM49,57H50V58H49zM51,57H52V58H51zM54,57H55V58H54zM55,57H56V58H55zM57,57H58V58H57zM58,57H59V58H58zM59,57H60V58H59zM61,57H62V58H61zM65,57H66V58H65zM67,57H68V58H67zM70,57H71V58H70zM4,58H5V59H4zM5,58H6V59H5zM8,58H9V59H8zM9,58H10V59H9zM10,58H11V59H10zM12,58H13V59H12zM15,58H16V59H15zM17,58H18V59H17zM18,58H19V59H18zM20,58H21V59H20zM21,58H22V59H21zM22,58H23V59H22zM23,58H24V59H23zM24,58H25V59H24zM25,58H26V59H25zM26,58H27V59H26zM28,58H29V59H28zM29,58H30V59H29zM31,58H32V59H31zM33,58H34V59H33zM36,58H37V59H36zM37,58H38V59H37zM38,58H39V59H38zM39,58H40V59H39zM40,58H41V59H40zM43,58H44V59H43zM44,58H45V59H44zM47,58H48V59H47zM48,58H49V59H48zM50,58H51V59H50zM52,58H53V59H52zM54,58H55V59H54zM57,58H58V59H57zM58,58H59V59H58zM60,58H61V59H60zM61,58H62V59H61zM62,58H63V59H62zM63,58H64V59H63zM64,58H65V59H64zM65,58H66V59H65zM4,59H5V60H4zM6,59H7V60H6zM9,59H10V60H9zM11,59H12V60H11zM12,59H13V60H12zM14,59H15V60H14zM15,59H16V60H15zM16,59H17V60H16zM19,59H20V60H19zM23,59H24V60H23zM24,59H25V60H24zM25,59H26V60H25zM26,59H27V60H26zM27,59H28V60H27zM31,59H32V60H31zM32,59H33V60H32zM33,59H34V60H33zM37,59H38V60H37zM42,59H43V60H42zM44,59H45V60H44zM45,59H46V60H45zM46,59H47V60H46zM48,59H49V60H48zM50,59H51V60H50zM55,59H56V60H55zM57,59H58V60H57zM60,59H61V60H60zM66,59H67V60H66zM71,59H72V60H71zM7,60H8V61H7zM8,60H9V61H8zM10,60H11V61H10zM13,60H14V61H13zM14,60H15V61H14zM15,60H16V61H15zM16,60H17V61H16zM18,60H19V61H18zM19,60H20V61H19zM21,60H22V61H21zM22,60H23V61H22zM25,60H26V61H25zM26,60H27V61H26zM27,60H28V61H27zM28,60H29V61H28zM30,60H31V61H30zM31,60H32V61H31zM32,60H33V61H32zM33,60H34V61H33zM34,60H35V61H34zM35,60H36V61H35zM36,60H37V61H36zM37,60H38V61H37zM41,60H42V61H41zM45,60H46V61H45zM46,60H47V61H46zM48,60H49V61H48zM49,60H50V61H49zM50,60H51V61H50zM51,60H52V61H51zM52,60H53V61H52zM53,60H54V61H53zM55,60H56V61H55zM57,60H58V61H57zM58,60H59V61H58zM60,60H61V61H60zM62,60H63V61H62zM65,60H66V61H65zM68,60H69V61H68zM70,60H71V61H70zM72,60H73V61H72zM4,61H5V62H4zM5,61H6V62H5zM6,61H7V62H6zM9,61H10V62H9zM11,61H12V62H11zM12,61H13V62H12zM13,61H14V62H13zM16,61H17V62H16zM21,61H22V62H21zM22,61H23V62H22zM25,61H26V62H25zM26,61H27V62H26zM28,61H29V62H28zM29,61H30V62H29zM30,61H31V62H30zM34,61H35V62H34zM36,61H37V62H36zM38,61H39V62H38zM39,61H40V62H39zM42,61H43V62H42zM43,61H44V62H43zM45,61H46V62H45zM46,61H47V62H46zM47,61H48V62H47zM49,61H50V62H49zM51,61H52V62H51zM52,61H53V62H52zM54,61H55V62H54zM56,61H57V62H56zM57,61H58V62H57zM58,61H59V62H58zM59,61H60V62H59zM60,61H61V62H60zM63,61H64V62H63zM65,61H66V62H65zM67,61H68V62H67zM70,61H71V62H70zM72,61H73V62H72zM4,62H5V63H4zM6,62H7V63H6zM8,62H9V63H8zM9,62H10V63H9zM10,62H11V63H10zM11,62H12V63H11zM16,62H17V63H16zM17,62H18V63H17zM18,62H19V63H18zM19,62H20V63H19zM20,62H21V63H20zM21,62H22V63H21zM22,62H23V63H22zM25,62H26V63H25zM26,62H27V63H26zM34,62H35V63H34zM43,62H44V63H43zM44,62H45V63H44zM49,62H50V63H49zM51,62H52V63H51zM52,62H53V63H52zM54,62H55V63H54zM55,62H56V63H55zM56,62H57V63H56zM63,62H64V63H63zM64,62H65V63H64zM65,62H66V63H65zM68,62H69V63H68zM69,62H70V63H69zM70,62H71V63H70zM71,62H72V63H71zM4,63H5V64H4zM13,63H14V64H13zM14,63H15V64H14zM15,63H16V64H15zM16,63H17V64H16zM17,63H18V64H17zM19,63H20V64H19zM21,63H22V64H21zM22,63H23V64H22zM23,63H24V64H23zM24,63H25V64H24zM26,63H27V64H26zM28,63H29V64H28zM32,63H33V64H32zM34,63H35V64H34zM35,63H36V64H35zM37,63H38V64H37zM38,63H39V64H38zM41,63H42V64H41zM42,63H43V64H42zM45,63H46V64H45zM46,63H47V64H46zM47,63H48V64H47zM48,63H49V64H48zM51,63H52V64H51zM59,63H60V64H59zM60,63H61V64H60zM62,63H63V64H62zM64,63H65V64H64zM67,63H68V64H67zM68,63H69V64H68zM71,63H72V64H71zM4,64H5V65H4zM7,64H8V65H7zM8,64H9V65H8zM10,64H11V65H10zM12,64H13V65H12zM13,64H14V65H13zM14,64H15V65H14zM15,64H16V65H15zM16,64H17V65H16zM17,64H18V65H17zM20,64H21V65H20zM21,64H22V65H21zM22,64H23V65H22zM25,64H26V65H25zM28,64H29V65H28zM31,64H32V65H31zM33,64H34V65H33zM34,64H35V65H34zM35,64H36V65H35zM36,64H37V65H36zM37,64H38V65H37zM38,64H39V65H38zM39,64H40V65H39zM40,64H41V65H40zM41,64H42V65H41zM43,64H44V65H43zM45,64H46V65H45zM47,64H48V65H47zM48,64H49V65H48zM50,64H51V65H50zM52,64H53V65H52zM53,64H54V65H53zM54,64H55V65H54zM55,64H56V65H55zM58,64H59V65H58zM60,64H61V65H60zM64,64H65V65H64zM65,64H66V65H65zM66,64H67V65H66zM67,64H68V65H67zM68,64H69V65H68zM70,64H71V65H70zM71,64H72V65H71zM12,65H13V66H12zM13,65H14V66H13zM17,65H18V66H17zM18,65H19V66H18zM21,65H22V66H21zM25,65H26V66H25zM27,65H28V66H27zM28,65H29V66H28zM31,65H32V66H31zM33,65H34V66H33zM36,65H37V66H36zM40,65H41V66H40zM42,65H43V66H42zM43,65H44V66H43zM46,65H47V66H46zM47,65H48V66H47zM49,65H50V66H49zM51,65H52V66H51zM54,65H55V66H54zM58,65H59V66H58zM60,65H61V66H60zM61,65H62V66H61zM63,65H64V66H63zM64,65H65V66H64zM68,65H69V66H68zM69,65H70V66H69zM70,65H71V66H70zM71,65H72V66H71zM4,66H5V67H4zM5,66H6V67H5zM6,66H7V67H6zM7,66H8V67H7zM8,66H9V67H8zM9,66H10V67H9zM10,66H11V67H10zM12,66H13V67H12zM14,66H15V67H14zM15,66H16V67H15zM18,66H19V67H18zM26,66H27V67H26zM29,66H30V67H29zM31,66H32V67H31zM33,66H34V67H33zM35,66H36V67H35zM36,66H37V67H36zM38,66H39V67H38zM40,66H41V67H40zM42,66H43V67H42zM44,66H45V67H44zM46,66H47V67H46zM47,66H48V67H47zM48,66H49V67H48zM49,66H50V67H49zM50,66H51V67H50zM52,66H53V67H52zM54,66H55V67H54zM55,66H56V67H55zM56,66H57V67H56zM57,66H58V67H57zM61,66H62V67H61zM64,66H65V67H64zM66,66H67V67H66zM68,66H69V67H68zM69,66H70V67H69zM71,66H72V67H71zM4,67H5V68H4zM10,67H11V68H10zM13,67H14V68H13zM16,67H17V68H16zM18,67H19V68H18zM19,67H20V68H19zM20,67H21V68H20zM24,67H25V68H24zM27,67H28V68H27zM28,67H29V68H28zM29,67H30V68H29zM30,67H31V68H30zM31,67H32V68H31zM36,67H37V68H36zM40,67H41V68H40zM43,67H44V68H43zM47,67H48V68H47zM50,67H51V68H50zM51,67H52V68H51zM52,67H53V68H52zM55,67H56V68H55zM56,67H57V68H56zM58,67H59V68H58zM60,67H61V68H60zM61,67H62V68H61zM64,67H65V68H64zM68,67H69V68H68zM69,67H70V68H69zM4,68H5V69H4zM6,68H7V69H6zM7,68H8V69H7zM8,68H9V69H8zM10,68H11V69H10zM12,68H13V69H12zM13,68H14V69H13zM16,68H17V69H16zM18,68H19V69H18zM22,68H23V69H22zM23,68H24V69H23zM24,68H25V69H24zM25,68H26V69H25zM26,68H27V69H26zM28,68H29V69H28zM30,68H31V69H30zM33,68H34V69H33zM34,68H35V69H34zM35,68H36V69H35zM36,68H37V69H36zM37,68H38V69H37zM38,68H39V69H38zM39,68H40V69H39zM40,68H41V69H40zM43,68H44V69H43zM45,68H46V69H45zM46,68H47V69H46zM47,68H48V69H47zM48,68H49V69H48zM49,68H50V69H49zM51,68H52V69H51zM52,68H53V69H52zM54,68H55V69H54zM55,68H56V69H55zM57,68H58V69H57zM58,68H59V69H58zM60,68H61V69H60zM62,68H63V69H62zM63,68H64V69H63zM64,68H65V69H64zM65,68H66V69H65zM66,68H67V69H66zM67,68H68V69H67zM68,68H69V69H68zM69,68H70V69H69zM71,68H72V69H71zM4,69H5V70H4zM6,69H7V70H6zM7,69H8V70H7zM8,69H9V70H8zM10,69H11V70H10zM13,69H14V70H13zM14,69H15V70H14zM15,69H16V70H15zM16,69H17V70H16zM17,69H18V70H17zM19,69H20V70H19zM23,69H24V70H23zM24,69H25V70H24zM26,69H27V70H26zM27,69H28V70H27zM28,69H29V70H28zM29,69H30V70H29zM30,69H31V70H30zM31,69H32V70H31zM35,69H36V70H35zM36,69H37V70H36zM42,69H43V70H42zM43,69H44V70H43zM44,69H45V70H44zM46,69H47V70H46zM48,69H49V70H48zM49,69H50V70H49zM51,69H52V70H51zM53,69H54V70H53zM54,69H55V70H54zM55,69H56V70H55zM57,69H58V70H57zM58,69H59V70H58zM61,69H62V70H61zM64,69H65V70H64zM65,69H66V70H65zM67,69H68V70H67zM68,69H69V70H68zM69,69H70V70H69zM70,69H71V70H70zM71,69H72V70H71zM72,69H73V70H72zM4,70H5V71H4zM6,70H7V71H6zM7,70H8V71H7zM8,70H9V71H8zM10,70H11V71H10zM13,70H14V71H13zM14,70H15V71H14zM16,70H17V71H16zM17,70H18V71H17zM19,70H20V71H19zM23,70H24V71H23zM24,70H25V71H24zM25,70H26V71H25zM26,70H27V71H26zM27,70H28V71H27zM28,70H29V71H28zM33,70H34V71H33zM35,70H36V71H35zM36,70H37V71H36zM39,70H40V71H39zM40,70H41V71H40zM43,70H44V71H43zM44,70H45V71H44zM45,70H46V71H45zM46,70H47V71H46zM49,70H50V71H49zM51,70H52V71H51zM52,70H53V71H52zM53,70H54V71H53zM55,70H56V71H55zM57,70H58V71H57zM58,70H59V71H58zM60,70H61V71H60zM61,70H62V71H61zM62,70H63V71H62zM63,70H64V71H63zM65,70H66V71H65zM67,70H68V71H67zM68,70H69V71H68zM4,71H5V72H4zM10,71H11V72H10zM14,71H15V72H14zM15,71H16V72H15zM16,71H17V72H16zM18,71H19V72H18zM19,71H20V72H19zM24,71H25V72H24zM25,71H26V72H25zM29,71H30V72H29zM31,71H32V72H31zM36,71H37V72H36zM37,71H38V72H37zM38,71H39V72H38zM39,71H40V72H39zM40,71H41V72H40zM41,71H42V72H41zM42,71H43V72H42zM43,71H44V72H43zM44,71H45V72H44zM45,71H46V72H45zM46,71H47V72H46zM48,71H49V72H48zM50,71H51V72H50zM55,71H56V72H55zM60,71H61V72H60zM61,71H62V72H61zM64,71H65V72H64zM65,71H66V72H65zM67,71H68V72H67zM69,71H70V72H69zM4,72H5V73H4zM5,72H6V73H5zM6,72H7V73H6zM7,72H8V73H7zM8,72H9V73H8zM9,72H10V73H9zM10,72H11V73H10zM12,72H13V73H12zM13,72H14V73H13zM16,72H17V73H16zM17,72H18V73H17zM20,72H21V73H20zM22,72H23V73H22zM24,72H25V73H24zM27,72H28V73H27zM31,72H32V73H31zM34,72H35V73H34zM36,72H37V73H36zM39,72H40V73H39zM40,72H41V73H40zM42,72H43V73H42zM43,72H44V73H43zM48,72H49V73H48zM49,72H50V73H49zM51,72H52V73H51zM52,72H53V73H52zM53,72H54V73H53zM60,72H61V73H60zM62,72H63V73H62zM65,72H66V73H65zM66,72H67V73H66zM67,72H68V73H67zM69,72H70V73H69zM72,72H73V73H72z" id="qr-path" fill="#000000" fill-opacity="1" fill-rule="nonzero" stroke="none"/></svg>